<svg xmlns="http://www.w3.org/2000/svg" viewBox="0 0 284.23 284.23"><defs><style>.cls-1{fill:#191919;}</style></defs><g id="Layer_2" data-name="Layer 2"><path d="M0,0V284.23H284.23V0ZM280.64,280.64H3.6V225.78h277Zm0-58.46H3.6V3.6h277Z"/><path class="cls-1" d="M76.8,87.91V68.5H89.41v2.19H79.22v7.52h8.49v2.18H79.22v7.52Z"/><path class="cls-1" d="M95,87.91V73.35h2.42v2.43h.73a3.81,3.81,0,0,1,1.55-2,4.72,4.72,0,0,1,2.52-.65,3.71,3.71,0,0,1,2.72,1.08,4.09,4.09,0,0,1,1.09,3v2.18h-2.3V78.11a2.91,2.91,0,0,0-.62-2,2.45,2.45,0,0,0-1.88-.65,4,4,0,0,0-2.07.55,5.68,5.68,0,0,0-1.74,1.75V87.91Z"/><path class="cls-1" d="M122.92,84.7a4.89,4.89,0,0,1-2,2.64,8.12,8.12,0,0,1-4.1.81,6.62,6.62,0,0,1-4.49-1.4,5.16,5.16,0,0,1-1.6-4.13V78.71a5.12,5.12,0,0,1,1.69-4.2,6.67,6.67,0,0,1,4.4-1.4,6.54,6.54,0,0,1,4.39,1.42,5.44,5.44,0,0,1,1.65,4.35v2.24h-9.7v1.52a3.37,3.37,0,0,0,.9,2.63,4,4,0,0,0,2.73.82,5,5,0,0,0,2.55-.49A3,3,0,0,0,120.57,84Zm-9.74-6v.59h7.27v-.37a3.87,3.87,0,0,0-.91-2.86,3.71,3.71,0,0,0-2.73-.9,3.87,3.87,0,0,0-2.73.86A3.57,3.57,0,0,0,113.18,78.71Z"/><path class="cls-1" d="M136.7,85.48a4.79,4.79,0,0,1-1.75,2,4.64,4.64,0,0,1-2.5.7A4.34,4.34,0,0,1,129,86.69a6.13,6.13,0,0,1-1.23-4.07v-4a5.2,5.2,0,0,1,1.64-4.1A6.74,6.74,0,0,1,134,73.11a8.89,8.89,0,0,1,1.75.18,11.19,11.19,0,0,1,1.7.5V68.5h2.42V87.91h-2.42V85.48Zm-3.64.36a4.39,4.39,0,0,0,2.26-.63,8.13,8.13,0,0,0,2.11-1.91V76.17a6,6,0,0,0-1.6-.69,6.73,6.73,0,0,0-1.82-.23,4.18,4.18,0,0,0-2.91.86,3.34,3.34,0,0,0-.95,2.6v3.91a3.47,3.47,0,0,0,.73,2.42A2.77,2.77,0,0,0,133.06,85.84Z"/><path class="cls-1" d="M156.88,84.7a4.9,4.9,0,0,1-2,2.64,8.12,8.12,0,0,1-4.1.81,6.62,6.62,0,0,1-4.49-1.4,5.2,5.2,0,0,1-1.6-4.13V78.71a5.12,5.12,0,0,1,1.69-4.2,6.67,6.67,0,0,1,4.4-1.4,6.53,6.53,0,0,1,4.39,1.42,5.44,5.44,0,0,1,1.65,4.35v2.24h-9.7v1.52a3.34,3.34,0,0,0,.91,2.63,3.93,3.93,0,0,0,2.73.82,5,5,0,0,0,2.54-.49A3,3,0,0,0,154.53,84Zm-9.75-6v.59h7.27v-.37a3.87,3.87,0,0,0-.91-2.86,3.7,3.7,0,0,0-2.72-.9A3.84,3.84,0,0,0,148,76,3.53,3.53,0,0,0,147.13,78.71Z"/><path class="cls-1" d="M162.89,87.91V73.35h2.43v2.43H166a3.78,3.78,0,0,1,1.56-2,4.68,4.68,0,0,1,2.52-.65,3.69,3.69,0,0,1,2.71,1.08,4.1,4.1,0,0,1,1.1,3v2.18h-2.31V78.11a2.86,2.86,0,0,0-.62-2,2.45,2.45,0,0,0-1.88-.65,4,4,0,0,0-2.07.55,5.77,5.77,0,0,0-1.73,1.75V87.91Z"/><path class="cls-1" d="M178.65,87.91V85.72h4.86V75.54h-4.86V73.35h7.28V85.72h4.85v2.19Zm6.07-17.22a3.32,3.32,0,0,1-1.49-.29,1.12,1.12,0,0,1-.57-1.1v-.16a1.16,1.16,0,0,1,.57-1.13,3.74,3.74,0,0,1,3,0,1.16,1.16,0,0,1,.57,1.13v.16a1.13,1.13,0,0,1-.58,1.1A3.36,3.36,0,0,1,184.72,70.69Z"/><path class="cls-1" d="M199.27,81.31v6.6h-2.43V68.5h2.43V79.25h1.24l4.65-5.9h3l-5.7,6.78,5.63,7.78h-2.77l-4.77-6.6Z"/><path class="cls-1" d="M50.76,177.67V149.05h5.37v10.73h8.95V149.05h5.36v28.62H65.08V164.08H56.13v13.59Z"/><path class="cls-1" d="M82.11,177.67V149.05h20v4.29H87.48v6.8h12.88v4.29H87.48v8.95h14.67v4.29Z"/><path class="cls-1" d="M115.24,177.67V149.05h5.37v24.33h12.53v4.29Z"/><path class="cls-1" d="M146.59,177.67V149.05H152v24.33h12.52v4.29Z"/><path class="cls-1" d="M176.15,177.67V149.05h20v4.29H181.51v6.8H194.4v4.29H181.51v8.95h14.68v4.29Z"/><path class="cls-1" d="M212.86,177.67h-5.37V149.05H218.8q4.65,0,6.87,1.95a7.3,7.3,0,0,1,2.22,5.79v2.4a8.13,8.13,0,0,1-1.49,5.11,7,7,0,0,1-4.45,2.49l6.62,10.88h-5.76l-6.41-10.52h-3.54Zm0-14.81h5.37a5.49,5.49,0,0,0,3.47-.84,3.68,3.68,0,0,0,1-3V157a3.49,3.49,0,0,0-1-2.83,5.64,5.64,0,0,0-3.47-.82h-5.37Z"/><path class="cls-1" d="M46.22,260.1a13.24,13.24,0,0,1-4-.55,15.71,15.71,0,0,1-3.07-1.35l1.06-3.49a18.06,18.06,0,0,0,2.82,1.34,9,9,0,0,0,3.24.53,3.09,3.09,0,0,0,2-.51,1.73,1.73,0,0,0,.61-1.39,1.49,1.49,0,0,0-.77-1.47,11.93,11.93,0,0,0-2.67-.82,9.65,9.65,0,0,1-4.51-2,4.87,4.87,0,0,1-1.3-3.66,5.67,5.67,0,0,1,1.69-4.16c1.12-1.13,2.85-1.69,5.17-1.69a10.29,10.29,0,0,1,3.41.59,16,16,0,0,1,2.73,1.19L51.82,246a20.36,20.36,0,0,0-2.66-1.12,8.19,8.19,0,0,0-2.63-.42,2.67,2.67,0,0,0-1.69.44,1.61,1.61,0,0,0-.54,1.31,1.68,1.68,0,0,0,.66,1.39,7.76,7.76,0,0,0,2.81,1,8.92,8.92,0,0,1,4.51,2,5.24,5.24,0,0,1,1.3,3.86,5,5,0,0,1-1.95,4.21A8.72,8.72,0,0,1,46.22,260.1Z"/><path class="cls-1" d="M81.11,259.86V244.63H76v-3.51h15v3.51H85.79v15.23Z"/><path class="cls-1" d="M120.46,260.1c-2.4,0-4.18-.55-5.32-1.64s-1.71-2.79-1.71-5.09V241.12h4.69v12a4.26,4.26,0,0,0,.54,2.54,2.77,2.77,0,0,0,3.61,0,4.35,4.35,0,0,0,.53-2.54v-12h4.69v12.25c0,2.3-.57,4-1.71,5.09S122.87,260.1,120.46,260.1Z"/><path class="cls-1" d="M150.45,259.86V241.12h7.05a6.94,6.94,0,0,1,5.14,1.86,6.71,6.71,0,0,1,1.86,5v5.2a6.53,6.53,0,0,1-1.86,4.89,7,7,0,0,1-5.16,1.83Zm4.68-3.51H157a2.63,2.63,0,0,0,2.2-.8,4.92,4.92,0,0,0,.61-2.88v-4.26a5.18,5.18,0,0,0-.61-3,2.6,2.6,0,0,0-2.2-.82h-1.88Z"/><path class="cls-1" d="M187.46,259.86v-3.51h4.69V244.63h-4.69v-3.51h14.06v3.51h-4.69v11.72h4.69v3.51Z"/><path class="cls-1" d="M231.5,260.1a7.59,7.59,0,0,1-5.23-1.6,5.59,5.59,0,0,1-1.79-4.43V247a5.75,5.75,0,0,1,1.8-4.49,7.6,7.6,0,0,1,5.25-1.62,7.5,7.5,0,0,1,5.22,1.62,5.77,5.77,0,0,1,1.78,4.49v7.07a5.59,5.59,0,0,1-1.79,4.43A7.61,7.61,0,0,1,231.5,260.1Zm0-3.52a2.16,2.16,0,0,0,1.81-.68,3.74,3.74,0,0,0,.54-2.29v-6.14a4,4,0,0,0-.54-2.34,2.6,2.6,0,0,0-3.61,0,4,4,0,0,0-.54,2.34v6.14a3.74,3.74,0,0,0,.54,2.29A2.15,2.15,0,0,0,231.5,256.58Z"/></g></svg>